{"title":"Chrysalis (2014) HDRiP XViD-HORRORSPOKE","uid":10605056,"size":908384594,"categoryP":"video","categoryS":"movies","magnet":"?xt=urn:btih:e0348e2231887bdc2aac0d36d0b4dc34b3344b1c&amp;dn=Chrysalis+%282014%29+HDRiP+XViD-HORRORSPOKE&amp;tr=udp%3A%2F%2Ftracker.openbittorrent.com%3A80&amp;tr=udp%3A%2F%2Fopen.demonii.com%3A1337&amp;tr=udp%3A%2F%2Ftracker.coppersurfer.tk%3A6969&amp;tr=udp%3A%2F%2Fexodus.desync.com%3A6969","seeders":6,"leechers":0,"uploader":"xxxlavalxxx","files":-1,"time":1405976966,"description":"[IMG]http://i.imgur.com/jhds3tx.jpg[/IMG]\n\n &lt;a href=&quot;\nhttp://www.imdb.com/title/tt2836260/&quot; rel=&quot;nofollow&quot; target=&quot;_NEW&quot;&gt;\nhttp://www.imdb.com/title/tt2836260/&lt;/a&gt;\n\n\n\nJoshua and Penelope are survivors of a deadly infection that laid waste to humanity 25 years ago. When they encounter fellow survivor Abira, their lives are forever changed as they fight off the remnants of the infected.\n\nDirector: John Klein\nWriters: Ben Kurstin (story), Ben Kurstin\nStars: Sara Gorsky, Cole Simon, Tanya Thai McBride\nGenres: Drama | Horror | Sci-Fi\nCountry: USA\nLanguage: English\n\nSOURCE - RR , Thanks\n\nINFO\n\nGeneral\nComplete name                            : C:UsersHomeDesktopChrysalis (2014) HDRiP XViD-HORRORSPOKE.avi\nFormat                                   : AVI\nFormat/Info                              : Audio Video Interleave\nFile size                                : 866 MiB\nDuration                                 : 1h 39mn\nOverall bit rate mode                    : Variable\nOverall bit rate                         : 1 222 Kbps\nWriting application                      : VirtualDubMod 1.5.4.1 (build 2178/release)\nWriting library                          : VirtualDubMod build 2178/release\n\nVideo\nID                                       : 0\nFormat                                   : MPEG-4 Visual\nFormat profile                           : Advanced Simple@L5\nFormat settings, BVOP                    : No\nFormat settings, QPel                    : No\nFormat settings, GMC                     : No warppoints\nFormat settings, Matrix                  : Custom\nCodec ID                                 : XVID\nCodec ID/Hint                            : XviD\nDuration                                 : 1h 39mn\nBit rate                                 : 1 095 Kbps\nWidth                                    : 720 pixels\nHeight                                   : 304 pixels\nDisplay aspect ratio                     : 2.35:1\nFrame rate                               : 25.000 fps\nColor space                              : YUV\nChroma subsampling                       : 4:2:0\nBit depth                                : 8 bits\nScan type                                : Progressive\nCompression mode                         : Lossy\nBits/(Pixel*Frame)                       : 0.200\nStream size                              : 776 MiB (90%)\nWriting library                          : XviD 1.2.1 (UTC 2008-12-04)\n\nAudio\nID                                       : 1\nFormat                                   : MPEG Audio\nFormat version                           : Version 1\nFormat profile                           : Layer 3\nMode                                     : Joint stereo\nMode extension                           : MS Stereo\nCodec ID                                 : 55\nCodec ID/Hint                            : MP3\nDuration                                 : 1h 39mn\nBit rate mode                            : Variable\nBit rate                                 : 114 Kbps\nNominal bit rate                         : 128 Kbps\nChannel(s)                               : 2 channels\nSampling rate                            : 48.0 KHz\nCompression mode                         : Lossy\nStream size                              : 80.8 MiB (9%)\nAlignment                                : Aligned on interleaves\nInterleave, duration                     : 24 ms (0.60 video frame)\nInterleave, preload duration             : 181 ms\nWriting library                          : LAME3.98r\nEncoding settings                        : -m j -V 4 -q 2 -lowpass 17 --abr 128\n\n\nscreens\n &lt;a href=&quot;\nhttp://i.imgur.com/CqBYzqN.png&quot; rel=&quot;nofollow&quot; target=&quot;_NEW&quot;&gt;\nhttp://i.imgur.com/CqBYzqN.png&lt;/a&gt; &lt;a href=&quot;\nhttp://i.imgur.com/NW2x7B3.png&quot; rel=&quot;nofollow&quot; target=&quot;_NEW&quot;&gt;\nhttp://i.imgur.com/NW2x7B3.png&lt;/a&gt; &lt;a href=&quot;\nhttp://i.imgur.com/ANIXUmw.png&quot; rel=&quot;nofollow&quot; target=&quot;_NEW&quot;&gt;\nhttp://i.imgur.com/ANIXUmw.png&lt;/a&gt; &lt;a href=&quot;\nhttp://i.imgur.com/hSTw4Kk.png&quot; rel=&quot;nofollow&quot; target=&quot;_NEW&quot;&gt;\nhttp://i.imgur.com/hSTw4Kk.png&lt;/a&gt; &lt;a href=&quot;\nhttp://i.imgur.com/hZN02PJ.png&quot; rel=&quot;nofollow&quot; target=&quot;_NEW&quot;&gt;\nhttp://i.imgur.com/hZN02PJ.png&lt;/a&gt;\n","torrent":{"xt":"urn:btih:e0348e2231887bdc2aac0d36d0b4dc34b3344b1c","amp;dn":"Chrysalis+%282014%29+HDRiP+XViD-HORRORSPOKE","amp;tr":["udp%3A%2F%2Ftracker.openbittorrent.com%3A80","udp%3A%2F%2Fopen.demonii.com%3A1337","udp%3A%2F%2Ftracker.coppersurfer.tk%3A6969","udp%3A%2F%2Fexodus.desync.com%3A6969"],"infoHash":"e0348e2231887bdc2aac0d36d0b4dc34b3344b1c","infoHashBuffer":{"type":"Buffer","data":[224,52,142,34,49,136,123,220,42,172,13,54,208,180,220,52,179,52,75,28]},"announce":[],"urlList":[]}}